<svg width="205" height="205" version="1.1" viewBox="0 0 16.933 16.933" xmlns="http://www.w3.org/2000/svg"><g transform="translate(-92.604 -74.7)"><g transform="translate(92.34 -205.9)" fill="#fff" aria-label="ï"><path d="m16.669 282.67c0-0.35829-0.30317-0.66146-0.66146-0.66146h-3.5278c-0.60634 0-0.90951 0.71658-0.46853 1.13l0.96463 0.99219-6.6973 6.7248c-0.27561 0.24804-0.27561 0.66145 0 0.93706l0.60634 0.60634c0.27561 0.27561 0.68902 0.27561 0.93707 0l6.7248-6.6973 0.99219 0.96463c0.41341 0.41341 1.13 0.1378 1.13-0.46853zm-4.6578 6.8075-0.44097 0.44097c-0.11024 0.11024-0.19292 0.33073-0.19292 0.46853v3.9688h-8.8194v-8.8194h7.276c0.1378 0 0.35829-0.0827 0.44097-0.19293l0.44097-0.44097c0.44097-0.41341 0.1378-1.13-0.44097-1.13h-8.158c-0.74414 0-1.3229 0.60634-1.3229 1.3229v9.7014c0 0.74414 0.57878 1.3229 1.3229 1.3229h9.7014c0.71658 0 1.3229-0.57877 1.3229-1.3229v-4.8507c0-0.57877-0.71658-0.88194-1.13-0.46853z" fill="#fff" stroke-width=".070004"/></g></g></svg>
